<?xml version="1.0" standalone="no"?>
<!DOCTYPE svg PUBLIC "-//W3C//DTD SVG 20010904//EN"
 "http://www.w3.org/TR/2001/REC-SVG-20010904/DTD/svg10.dtd">
<svg version="1.0" xmlns="http://www.w3.org/2000/svg"
 width="720.000000pt" height="720.000000pt" viewBox="0 0 720.000000 720.000000"
 preserveAspectRatio="xMidYMid meet">

<g transform="translate(0.000000,720.000000) scale(0.100000,-0.100000)"
fill="#000000" stroke="none">
<path d="M0 3600 l0 -3600 3600 0 3600 0 0 3600 0 3600 -3600 0 -3600 0 0
-3600z m1416 892 c125 -64 173 -209 111 -334 -15 -29 -25 -54 -23 -55 1 -2 22
7 46 20 62 32 80 72 80 174 l0 83 40 0 40 0 0 -87 c0 -72 -5 -97 -25 -140
l-24 -53 114 0 115 0 0 -40 0 -40 -585 0 -585 0 0 40 0 40 119 0 120 0 -24 43
c-22 36 -25 55 -25 140 l0 97 35 0 35 0 0 -72 c0 -49 6 -86 19 -113 21 -46 34
-59 84 -80 l36 -15 -27 52 c-39 75 -39 173 1 240 66 114 210 158 323 100z
m1279 -252 c22 -6 75 -28 118 -47 l77 -36 0 -114 0 -113 -24 0 c-21 0 -30 11
-55 63 -75 158 -205 236 -344 207 -108 -22 -177 -94 -177 -181 1 -90 78 -171
258 -269 310 -169 401 -266 402 -426 0 -82 -11 -122 -52 -181 -110 -162 -420
-202 -658 -85 l-75 37 -3 113 -3 112 28 0 c24 0 32 -8 55 -59 38 -80 107 -154
176 -188 47 -23 70 -28 132 -28 170 0 283 116 250 255 -23 95 -103 170 -293
277 -206 115 -306 194 -347 272 -30 59 -28 166 4 230 42 81 128 142 236 168
62 14 231 10 295 -7z m1625 -584 l0 -564 40 -7 c34 -6 40 -11 40 -31 l0 -24
-170 0 -170 0 0 24 c0 20 6 25 40 31 l40 7 0 533 0 532 -40 7 c-34 5 -40 10
-40 31 l0 25 130 0 130 0 0 -564z m1994 504 c32 -12 49 -44 49 -94 0 -53 -37
-86 -95 -86 -58 0 -88 29 -88 86 0 58 8 74 44 90 37 16 57 17 90 4z m-522
-137 l3 -88 103 -3 c101 -3 102 -3 102 -27 0 -25 0 -25 -105 -25 l-105 0 0
-340 c0 -352 6 -425 40 -455 43 -39 120 0 120 61 0 19 5 24 25 24 20 0 25 -5
25 -26 0 -67 -62 -137 -130 -149 -99 -17 -176 21 -223 109 -21 40 -22 52 -25
409 l-3 367 -44 0 c-41 0 -45 2 -45 25 0 23 4 25 44 25 l43 0 59 90 c50 76 63
90 86 90 l27 0 3 -87z m-4542 -115 c0 -27 -6 -36 -33 -48 -27 -13 -32 -20 -32
-50 0 -30 5 -37 32 -50 27 -13 33 -21 33 -49 l0 -34 -42 7 c-75 12 -160 76
-191 143 -12 26 -34 29 -82 9 -63 -27 -87 -102 -51 -159 12 -18 96 -60 318
-158 335 -149 375 -175 425 -277 25 -51 28 -68 28 -157 0 -84 -4 -107 -24
-147 -37 -75 -95 -134 -169 -170 -59 -29 -76 -33 -152 -33 -72 0 -94 4 -145
28 -154 72 -239 238 -205 401 12 60 59 138 101 168 25 19 26 19 73 -2 l48 -20
-50 -45 c-63 -57 -86 -112 -80 -192 5 -69 29 -124 75 -169 46 -47 87 -65 154
-71 88 -8 144 11 205 71 84 82 103 182 55 291 -33 75 -85 107 -396 246 -241
107 -295 135 -323 166 -86 98 -57 249 60 307 49 25 60 26 210 26 l158 0 0 -32z
m492 -3 c110 -77 118 -238 15 -320 -17 -14 -72 -44 -122 -66 l-89 -40 -53 23
c-29 13 -53 25 -53 28 0 3 59 32 131 64 104 47 135 65 150 90 23 37 24 58 4
100 -17 35 -37 51 -81 60 -27 6 -32 2 -64 -45 -38 -56 -108 -103 -172 -114
-38 -7 -38 -7 -38 28 0 29 4 36 25 41 56 14 56 98 0 112 -21 5 -25 12 -25 41
l0 35 164 -4 c164 -3 164 -3 208 -33z m1838 5 c144 -21 279 -122 343 -257 28
-60 32 -80 35 -174 3 -80 0 -121 -13 -165 -56 -193 -234 -324 -440 -324 -183
0 -344 103 -424 269 -35 74 -36 79 -36 196 0 118 1 121 37 198 77 162 224 256
413 266 11 0 49 -4 85 -9z m1152 -352 c3 -312 4 -324 25 -365 45 -84 150 -129
241 -104 58 16 124 78 153 144 22 49 23 67 27 314 l4 262 -28 6 c-60 14 -64
16 -64 41 l0 24 130 0 130 0 0 -394 0 -394 40 -7 c34 -6 40 -11 40 -31 l0 -24
-125 0 -125 0 0 62 0 63 -44 -50 c-24 -28 -68 -64 -97 -80 -49 -27 -62 -30
-149 -30 -83 1 -102 4 -152 28 -62 30 -115 83 -150 149 -22 42 -23 52 -26 340
-3 326 3 297 -64 312 -21 5 -28 12 -28 31 l0 25 129 0 130 0 3 -322z m1628
-72 l0 -394 40 -7 c34 -6 40 -11 40 -31 l0 -24 -170 0 -170 0 0 24 c0 20 6 25
40 31 l40 7 0 359 c0 279 -3 360 -12 363 -7 3 -25 7 -40 10 -21 5 -28 12 -28
31 l0 25 130 0 130 0 0 -394z m-5002 -396 c-3 -136 -8 -149 -50 -150 -40 0
-48 26 -48 156 l0 124 51 0 51 0 -4 -130z m3232 -260 c0 -75 -3 -100 -12 -99
-7 1 -21 -1 -31 -6 -49 -21 -93 31 -80 96 7 36 35 53 74 45 28 -5 29 -4 29 29
0 19 5 35 10 35 6 0 10 -40 10 -100z m1560 -1 c0 -85 -2 -100 -15 -96 -8 4
-17 2 -20 -3 -10 -16 -47 -12 -67 7 -12 11 -18 30 -18 59 0 55 21 78 67 71 32
-6 33 -5 33 29 0 19 5 34 10 34 6 0 10 -40 10 -101z m-2236 85 c31 -12 17 -26
-19 -20 -73 14 -114 -76 -59 -131 20 -20 32 -24 55 -19 22 4 29 2 27 -7 -3 -6
-21 -13 -41 -15 -54 -5 -87 31 -87 96 0 26 6 55 13 64 26 33 74 46 111 32z
m1376 -81 l33 -88 41 0 c50 0 55 20 12 45 -41 22 -53 44 -36 65 14 17 80 18
81 0 1 -5 -13 -9 -30 -7 -44 5 -41 -24 4 -42 26 -11 35 -21 35 -39 0 -38 -22
-50 -79 -42 -43 6 -51 10 -60 36 -8 24 -15 29 -44 29 -29 0 -37 -5 -47 -30 -7
-16 -18 -30 -26 -30 -12 0 -6 19 51 158 8 17 18 32 23 32 6 0 24 -39 42 -87z
m570 72 c0 -8 -4 -15 -10 -15 -5 0 -10 7 -10 15 0 8 5 15 10 15 6 0 10 -7 10
-15z m-1580 -20 c0 -8 9 -15 20 -15 11 0 20 -4 20 -10 0 -5 -9 -10 -20 -10
-17 0 -20 -7 -20 -51 0 -42 3 -52 20 -56 24 -6 17 -23 -10 -23 -26 0 -40 30
-40 84 0 25 -5 46 -10 46 -12 0 21 49 33 50 4 0 7 -7 7 -15z m-226 -34 c27
-30 18 -101 -15 -120 -50 -28 -99 9 -99 74 0 55 78 86 114 46z m66 7 c0 -9 3
-9 12 0 15 15 61 15 76 0 14 -14 16 -128 2 -128 -5 0 -10 22 -10 48 0 51 -12
72 -42 72 -23 0 -38 -30 -38 -79 0 -23 -4 -41 -10 -41 -6 0 -10 30 -10 70 0
40 4 70 10 70 6 0 10 -5 10 -12z m308 0 c17 -17 16 -131 0 -125 -7 2 -21 0
-31 -5 -27 -14 -65 -2 -72 23 -10 30 21 59 62 59 34 0 39 5 24 29 -6 9 -19 12
-40 8 -17 -4 -31 -2 -31 2 0 21 69 28 88 9z m295 -1 c29 -20 32 -77 7 -110
-24 -30 -55 -35 -88 -11 -27 19 -31 88 -5 116 19 21 61 24 86 5z m70 1 c4 -10
7 -10 18 0 16 14 49 16 49 2 0 -5 -8 -10 -18 -10 -30 0 -42 -21 -42 -72 0 -36
-4 -48 -15 -48 -12 0 -15 14 -15 70 0 63 11 90 23 58z m168 2 c12 -7 19 -21
19 -40 0 -29 -2 -30 -45 -30 -33 0 -45 -4 -45 -15 0 -20 37 -38 66 -31 13 4
24 2 24 -4 0 -16 -49 -23 -76 -11 -34 15 -48 55 -34 97 15 43 49 56 91 34z
m131 -5 c-1 -5 -16 -8 -32 -7 -43 5 -39 -24 5 -42 63 -27 37 -92 -32 -84 -43
5 -39 26 4 24 48 -1 52 23 6 43 -62 28 -50 85 16 79 20 -2 35 -7 33 -13z m450
0 c-1 -5 -15 -8 -31 -7 -45 5 -46 -15 -1 -43 44 -28 52 -58 20 -75 -26 -14
-72 -9 -77 7 -3 8 6 10 30 6 26 -4 36 -1 40 11 5 11 -5 22 -33 36 -41 21 -51
45 -28 68 15 15 84 12 80 -3z m138 -5 c30 -30 22 -98 -14 -122 -20 -14 -56 -8
-76 12 -25 25 -27 86 -3 112 21 24 68 23 93 -2z m140 10 c0 -5 -13 -10 -30
-10 -19 0 -33 -7 -40 -19 -25 -47 3 -98 47 -86 18 4 24 2 21 -7 -7 -20 -46
-22 -74 -4 -19 13 -24 25 -24 58 0 52 22 78 67 78 18 0 33 -4 33 -10z m40 -60
c0 -40 -4 -70 -10 -70 -6 0 -10 30 -10 70 0 40 4 70 10 70 6 0 10 -30 10 -70z
m128 58 c7 -7 12 -38 12 -71 0 -48 -3 -58 -15 -54 -8 4 -17 2 -20 -3 -9 -14
-49 -12 -63 2 -33 33 -2 78 53 78 39 0 30 34 -10 37 -49 2 -51 3 -35 13 21 13
64 12 78 -2z m302 -8 c43 -43 13 -130 -45 -130 -55 0 -85 77 -49 128 19 28 67
29 94 2z m130 7 c0 -7 -13 -12 -32 -12 -44 0 -44 -17 0 -40 63 -34 46 -92 -25
-83 -40 5 -41 26 -1 25 46 -3 48 24 3 46 -26 12 -35 23 -35 41 0 27 11 34 58
35 19 1 32 -4 32 -12z"/>
<path d="M1230 4417 c-75 -40 -109 -132 -76 -210 20 -49 78 -95 128 -102 116
-18 222 97 189 205 -33 111 -142 160 -241 107z"/>
<path d="M1077 3894 c-11 -12 13 -44 33 -44 25 0 35 17 20 35 -13 15 -42 20
-53 9z"/>
<path d="M1492 3888 c-22 -22 -14 -40 16 -36 33 4 47 48 15 48 -11 0 -24 -5
-31 -12z"/>
<path d="M3404 3842 c-222 -104 -263 -534 -69 -727 128 -129 325 -78 409 105
38 81 49 151 44 270 -8 160 -56 264 -156 335 -37 25 -54 30 -115 33 -55 2 -82
-2 -113 -16z"/>
<path d="M4502 2838 c-17 -17 -15 -73 3 -88 20 -17 54 -3 61 26 13 52 -31 95
-64 62z"/>
<path d="M6062 2838 c-26 -26 -7 -98 26 -98 27 0 42 20 42 55 0 34 -15 55 -40
55 -9 0 -21 -5 -28 -12z"/>
<path d="M5233 2845 c-11 -34 -10 -35 14 -35 21 0 23 3 17 23 -14 46 -20 48
-31 12z"/>
<path d="M3981 2841 c-19 -12 -18 -68 1 -88 37 -36 83 20 59 73 -11 25 -35 31
-60 15z"/>
<path d="M4354 2775 c-7 -18 3 -35 21 -35 15 0 45 27 45 41 0 15 -60 10 -66
-6z"/>
<path d="M4652 2838 c-17 -17 -15 -64 4 -82 31 -32 64 -11 64 39 0 34 -15 55
-40 55 -9 0 -21 -5 -28 -12z"/>
<path d="M4902 2838 c-20 -20 -14 -28 24 -28 28 0 35 3 32 18 -4 21 -39 27
-56 10z"/>
<path d="M5599 2826 c-15 -33 -4 -73 22 -81 27 -9 52 15 52 49 0 54 -54 77
-74 32z"/>
<path d="M5916 2773 c-7 -16 8 -33 30 -33 14 0 34 21 34 37 0 20 -57 16 -64
-4z"/>
<path d="M6209 2826 c-15 -32 -4 -73 22 -81 38 -12 67 33 50 79 -14 35 -57 36
-72 2z"/>
</g>
</svg>
